<?xml version="1.0" standalone="no"?>
<!DOCTYPE svg PUBLIC "-//W3C//DTD SVG 20010904//EN"
 "http://www.w3.org/TR/2001/REC-SVG-20010904/DTD/svg10.dtd">
<svg version="1.0" xmlns="http://www.w3.org/2000/svg"
 width="98.000000pt" height="98.000000pt" viewBox="0 0 98.000000 98.000000"
 preserveAspectRatio="xMidYMid meet">
<metadata>
Created by potrace 1.11, written by Peter Selinger 2001-2013
</metadata>
<g transform="translate(0.000000,98.000000) scale(0.100000,-0.100000)"
fill="#000000" stroke="none">
<path d="M769 968 c0 -7 -1 -122 -2 -255 0 -225 -2 -242 -19 -246 -10 -3 -18
-2 -18 1 0 4 -22 7 -50 7 -27 0 -50 -2 -50 -5 0 -3 -28 -4 -63 -2 -73 4 -96
-10 -72 -44 12 -19 24 -20 143 -19 l129 1 -1 -139 c-1 -86 3 -142 9 -147 6 -5
24 -8 40 -7 l30 2 3 433 2 432 -40 0 c-25 0 -40 -5 -41 -12z"/>
<path d="M390 764 c0 -5 -12 -10 -26 -9 -16 0 -31 -8 -38 -20 -6 -10 -16 -25
-22 -31 -6 -7 -17 -26 -24 -43 -7 -17 -16 -31 -21 -31 -5 0 -9 -5 -9 -12 0 -6
-21 -47 -47 -92 -49 -83 -58 -106 -42 -106 5 0 9 -7 9 -15 0 -8 5 -15 10 -15
6 0 10 -9 10 -20 0 -11 5 -20 10 -20 6 0 10 -7 10 -15 0 -8 5 -15 11 -15 5 0
8 -4 5 -9 -3 -5 1 -14 9 -21 8 -7 15 -19 15 -26 0 -8 5 -14 10 -14 6 0 10 -9
10 -19 0 -10 7 -21 15 -25 8 -3 14 -9 13 -13 -3 -11 31 -73 40 -74 4 -1 59 -2
122 -4 89 -1 119 2 132 13 10 8 15 19 12 23 -3 5 2 9 10 9 9 0 13 6 10 14 -4
10 -30 14 -107 14 -56 0 -111 1 -122 1 -13 1 -27 15 -39 41 -11 22 -23 40 -28
40 -4 0 -8 3 -7 8 2 14 -13 52 -21 52 -4 0 -13 14 -20 30 -7 17 -16 30 -20 30
-3 0 -7 6 -8 13 0 6 -3 22 -5 34 -3 12 0 26 7 32 7 6 21 29 31 51 10 22 22 40
27 40 5 0 7 4 4 9 -3 5 1 14 9 21 8 7 13 16 10 20 -3 4 2 13 10 20 8 7 15 18
15 24 0 24 38 32 145 31 108 -1 134 6 112 30 -7 7 -18 22 -26 33 -11 16 -18
19 -28 10 -9 -7 -13 -7 -13 1 0 9 -5 9 -20 1 -11 -6 -20 -7 -20 -3 0 10 -41
10 -58 -1 -7 -4 -12 -2 -12 5 0 8 -4 9 -13 0 -10 -8 -17 -7 -25 1 -7 7 -12 8
-12 2z"/>
<path d="M392 566 c-17 -30 -32 -59 -32 -65 0 -6 -4 -11 -8 -11 -5 0 -14 -11
-20 -25 -10 -21 -9 -32 3 -55 9 -17 16 -33 17 -37 1 -5 8 -14 15 -21 7 -7 13
-20 13 -28 0 -8 4 -14 8 -14 5 0 14 -10 19 -23 6 -13 17 -24 25 -25 49 -6 85
-5 96 2 7 4 12 3 12 -2 0 -10 30 -10 46 0 5 4 16 3 24 -2 7 -4 24 -4 37 1 12
5 23 5 23 1 0 -3 8 9 19 28 10 19 15 37 10 40 -5 3 -59 5 -120 5 l-111 -1 -27
41 c-14 22 -30 43 -36 47 -6 5 -5 8 4 8 11 0 11 3 1 15 -9 11 -9 15 -1 15 6 0
19 16 28 35 15 30 73 68 73 46 0 -8 105 -5 127 4 7 2 15 0 18 -5 7 -12 35 -6
45 10 5 8 0 22 -15 38 -22 24 -31 26 -122 27 -54 0 -106 -3 -115 -7 -9 -4 -18
-4 -20 2 -2 6 -18 -14 -36 -44z"/>
<path d="M736 82 c-4 -7 -5 -12 -1 -12 3 0 1 -9 -4 -19 -10 -17 -8 -18 13 -8
14 7 21 14 17 17 -5 3 -10 12 -13 20 -3 10 -6 11 -12 2z"/>
<path d="M195 70 c3 -5 0 -10 -7 -11 -7 0 -4 -4 7 -9 11 -5 15 -9 8 -9 -7 -1
-10 -8 -6 -18 5 -12 3 -14 -8 -8 -8 5 -11 4 -6 0 16 -18 35 -13 29 8 -3 12 -1
18 5 14 14 -9 11 25 -2 35 -15 11 -27 10 -20 -2z"/>
<path d="M796 72 c-4 -7 -5 -16 -2 -21 4 -5 0 -12 -6 -14 -7 -3 -3 -6 9 -6 28
-1 36 12 19 34 -9 13 -15 15 -20 7z"/>
<path d="M271 55 c-24 -8 -31 -14 -22 -19 7 -5 10 -14 7 -22 -3 -8 1 -14 8
-14 9 0 12 8 9 24 -4 17 0 25 17 29 16 4 20 1 17 -11 -2 -9 -9 -16 -17 -14
-11 3 -11 0 0 -13 17 -20 40 -2 33 26 -7 27 -13 28 -52 14z"/>
<path d="M450 59 c0 -5 -6 -7 -12 -3 -7 4 -5 -2 5 -13 9 -11 17 -24 17 -30 0
-5 7 -10 14 -10 11 0 12 5 5 18 -6 11 -5 20 1 24 17 10 11 25 -10 25 -11 0
-20 -5 -20 -11z m25 -9 c-3 -5 -12 -10 -18 -10 -7 0 -6 4 3 10 19 12 23 12 15
0z"/>
<path d="M564 36 c1 -26 5 -32 23 -32 12 0 19 4 17 8 -3 5 -10 5 -16 2 -7 -5
-9 -1 -5 9 3 10 2 17 -4 17 -6 0 -8 4 -4 9 3 5 2 12 -3 15 -5 3 -8 -10 -8 -28z"/>
<path d="M132 35 c-1 -21 24 -43 36 -30 3 3 0 5 -7 5 -7 0 -9 5 -6 10 3 6 1
10 -6 10 -8 0 -6 5 5 13 16 12 16 13 -1 14 -13 1 -19 -6 -21 -22z"/>
<path d="M396 38 c-14 -20 -21 -18 -17 5 0 4 -6 7 -16 7 -15 0 -15 -1 0 -18
10 -10 14 -21 11 -25 -3 -3 3 -5 14 -4 11 0 18 5 16 9 -3 4 -1 8 5 8 5 0 9 9
8 20 -2 25 -2 25 -21 -2z"/>
<path d="M513 46 c0 -8 8 -17 17 -19 9 -2 17 2 17 9 0 7 -4 11 -9 8 -4 -3 -8
0 -8 5 0 6 -4 11 -8 11 -5 0 -9 -6 -9 -14z"/>
<path d="M636 41 c-10 -11 -15 -25 -11 -30 10 -17 24 -13 20 7 -1 9 2 23 8 30
15 19 2 14 -17 -7z"/>
<path d="M681 46 c-8 -10 -9 -16 -1 -21 6 -3 8 -11 5 -16 -4 -5 -2 -9 3 -9 14
0 23 28 11 35 -5 4 -7 11 -4 16 9 14 -1 11 -14 -5z"/>
<path d="M741 26 c-7 -8 -8 -17 -3 -20 6 -3 12 3 15 14 6 24 4 25 -12 6z"/>
<path d="M506 8 c3 -4 9 -8 15 -8 5 0 9 4 9 8 0 5 -7 9 -15 9 -8 0 -12 -4 -9
-9z"/>
<path d="M805 10 c-3 -5 1 -10 10 -10 9 0 13 5 10 10 -3 6 -8 10 -10 10 -2 0
-7 -4 -10 -10z"/>
</g>
</svg>
